<svg id="Layer_1" data-name="Layer 1" xmlns="http://www.w3.org/2000/svg" width="185.85" height="181.79" viewBox="0 0 185.85 181.79">
  <defs>
    <style>
      .cls-1 {
        fill: #600b48;
      }

      .cls-2 {
        fill: #a7c7d1;
      }
    </style>
  </defs>
  <g id="icon9">
    <path class="cls-1" d="M29.42,25.1h0A54.9,54.9,0,0,1,84.32,80v.08a0,0,0,0,1,0,0h0a54.9,54.9,0,0,1-54.9-54.9V25.1a0,0,0,0,1,0,0Z"/>
    <path class="cls-1" d="M26.59,101.11h0A54.9,54.9,0,0,1,81.49,156v.08a0,0,0,0,1,0,0h0a54.9,54.9,0,0,1-54.9-54.9v-.08a0,0,0,0,1,0,0Z" transform="translate(-74.56 182.64) rotate(-90)"/>
    <path class="cls-1" d="M109.41,24.88h0a54.9,54.9,0,0,1,54.9,54.9v.08a0,0,0,0,1,0,0h0A54.9,54.9,0,0,1,109.41,25v-.08A0,0,0,0,1,109.41,24.88Z" transform="translate(84.5 189.23) rotate(-90)"/>
    <path class="cls-1" d="M11.4,62.06h0A54.9,54.9,0,0,1,66.3,117V117a0,0,0,0,1,0,0h0a54.9,54.9,0,0,1-54.9-54.9v-.08a0,0,0,0,1,0,0Z" transform="translate(-51.94 53.7) rotate(-45)"/>
    <path class="cls-1" d="M119.55,64.76h0a54.9,54.9,0,0,1,54.9,54.9v.08a0,0,0,0,1,0,0h0a54.9,54.9,0,0,1-54.9-54.9v-.08A0,0,0,0,1,119.55,64.76Z" transform="translate(-22.17 130.96) rotate(-45)"/>
    <path class="cls-1" d="M102.89,102.18h0a54.9,54.9,0,0,1,54.9,54.9v.08a0,0,0,0,1,0,0h0a54.9,54.9,0,0,1-54.9-54.9v-.08A0,0,0,0,1,102.89,102.18Z"/>
    <path class="cls-1" d="M68.86,11.36h0a54.9,54.9,0,0,1,54.9,54.9v.08a0,0,0,0,1,0,0h0a54.9,54.9,0,0,1-54.9-54.9v-.08A0,0,0,0,1,68.86,11.36Z" transform="translate(136.93 134.41) rotate(-135)"/>
    <path class="cls-1" d="M64.8,115.46h0a54.9,54.9,0,0,1,54.9,54.9v.08a0,0,0,0,1,0,0h0a54.9,54.9,0,0,1-54.9-54.9v-.08A0,0,0,0,1,64.8,115.46Z" transform="translate(56.4 309.25) rotate(-135)"/>
    <circle class="cls-2" cx="95.18" cy="90.9" r="19.83"/>
  </g>
</svg>
