<svg id="Layer_1" data-name="Layer 1" xmlns="http://www.w3.org/2000/svg" width="184.02" height="83.35" viewBox="0 0 184.02 83.35">
  <defs>
    <style>
      .cls-1 {
        fill: #600b48;
        stroke: #600b48;
        stroke-miterlimit: 10;
        stroke-width: 4.55px;
      }

      .cls-2 {
        fill: #a7c7d1;
      }
    </style>
  </defs>
  <path class="cls-1" d="M3.18,45a1.21,1.21,0,0,1-.52-2.06C30.23,17.43,54.4,3.3,62.88,5.22a28.14,28.14,0,0,1,7.74,2.83c5.65,3.52,6.28,7.61,11.29,10a15.4,15.4,0,0,0,8.84,1.14,40.86,40.86,0,0,0,8.46-2.47c9.32-3.86,15.13-11.47,17.67-13.21C123-.73,139.05,4.55,181.36,43.64a1.23,1.23,0,0,1,0,1.79c-4.27,4-16.59,4.06-24.43,10.31C136.7,71.87,121.88,79.8,96,81c-17.6.82-26.82-4.73-60.09-15.67-6.05-2-14.7-4.77-25.36-7.94A1.21,1.21,0,0,1,10.9,55c43.91.74,75.17.81,76.37.72l3.33-.27h0s15.91-1.37,30.81-3.89a188.24,188.24,0,0,0,33.21-8.85,1.21,1.21,0,0,0-.67-2.31c-8.23,1.7-15.33,4.87-24.89,4.87-7.34,0-15.51-2.48-22.89-2.61a1.2,1.2,0,0,0-1,.49c-1.52,2.07-5.85,7.76-16.18,7.34a22.78,22.78,0,0,1-7.6-1.74c-3-1.33-3.38-1.56-3.36-1.91a1.21,1.21,0,0,0-1.45-1.31,152.91,152.91,0,0,1-30.26,4.09A153.52,153.52,0,0,1,3.18,45Z"/>
  <path class="cls-2" d="M64.37,14.2c-.6-2.19-1.56-3.19-2.46-3.66-6.5-3.4-21.37,14.56-22.46,15.89Z"/>
  <path class="cls-2" d="M143.9,20.55c-1.26-1.17-18.48-16.88-24.44-12.61-.83.59-1.64,1.71-1.93,4Z"/>
  <path class="cls-2" d="M91.83,28a3.26,3.26,0,0,0-2.36-1.18C85.41,27,85,41,85,42Q88.39,35,91.83,28Z"/>
</svg>
